<svg xmlns="http://www.w3.org/2000/svg" width="188.187" height="146.607" viewBox="0 0 188.187 146.607">
  <path id="Subtraction_1" data-name="Subtraction 1" d="M81.661,167.4A82.317,82.317,0,0,1,61.6,164.913c-6.585-1.707-11.5-4.047-14.226-6.769L0,110.768,53.555,57.212,79.547,83.2a17.5,17.5,0,0,0,24.476,24.476l26.952,26.952-26.933,26.933c-1.937,1.937-5.006,3.429-9.122,4.435A57.265,57.265,0,0,1,81.661,167.4ZM133.8,131.8h0l-26.855-26.855a17.5,17.5,0,0,0-24.67-24.67L56.384,54.383,84.145,26.622c1.937-1.937,5.006-3.429,9.122-4.435a57.266,57.266,0,0,1,13.258-1.4,82.317,82.317,0,0,1,20.059,2.485c6.585,1.707,11.5,4.047,14.226,6.769L188.187,77.42,133.8,131.8Z" transform="translate(0 -20.79)" fill="#fff"/>
</svg>
